<svg xmlns="http://www.w3.org/2000/svg" viewBox="0 0 211 37" width="211" height="37"><path fill="#388E3C" fill-rule="evenodd" d="M34.094 31.032l.696-4.197h2.397c.893 0 1.468-.694 1.732-2.248.245-1.492-.076-2.154-.967-2.154H35.55l.38-2.237c.423-2.557 1.681-3.817 3.745-3.817h.394c1.154 0 1.778-.2 1.869-.769.07-.383-.035-.91-.148-1.492-.122-.564-.253-1.111-.436-1.417-.276-.517-.914-.766-1.918-.766-2.484 0-4.524.728-6.133 2.196-1.604 1.465-2.626 3.434-3.082 6.102l-.386 2.2h-5.032c-.083 0-5.285.614-5.285.614l4.792.772.193.741-2.935.262 3.083.473.123.601-9.189.541s9.918.398 9.996.398h3.491l-.701 4.197H8.954c-2.726 0-4.95-2.227-5.01-4.989L1.199 7.174c.211.042.426.064.646.064l16.074.006c1.133 1.903 3.162 3.106 5.407 3.107 3.204 0 5.837-2.434 6.273-5.577h15.725c.417 0 .812.185 1.084.507.272.32.393.747.333 1.166l-2.85 19.596c-.061 2.762-2.285 4.99-5.012 4.99h-4.785zm18.656-2.341l.953-4.942c.444.307 1.375.611 2.794.916 1.418.307 2.827.458 4.224.458 1.314 0 2.408-.207 3.288-.624.879-.414 1.316-1.014 1.316-1.798 0-.524-.265-.978-.794-1.36-.527-.383-1.184-.67-1.967-.868a29.217 29.217 0 0 1-2.574-.785 20.527 20.527 0 0 1-2.572-1.099c-.782-.402-1.44-1.009-1.969-1.815-.53-.807-.794-1.78-.794-2.915 0-2.488.927-4.423 2.78-5.812 1.853-1.385 4.397-2.08 7.637-2.08 1.08 0 2.165.088 3.255.264 1.09.173 1.905.339 2.447.49.539.153.926.287 1.158.392l-.953 4.716c-.55-.305-1.435-.583-2.652-.836a18.14 18.14 0 0 0-3.635-.375c-1.293 0-2.409.202-3.352.606-.94.405-1.414.987-1.414 1.753 0 .502.265.926.795 1.277.529.348 1.186.616 1.97.8.783.184 1.639.45 2.573.786a21.06 21.06 0 0 1 2.571 1.129c.783.414 1.44 1.048 1.97 1.9.529.851.791 1.855.791 3.013 0 2.617-.907 4.598-2.727 5.944-1.823 1.34-4.406 2.013-7.751 2.013-1.25 0-2.49-.093-3.716-.28-1.23-.186-2.149-.376-2.763-.573l-.889-.295zm38.364-16.756L88.39 29.472h-3.953l.13-3.727c-1.794 2.727-4.092 4.094-6.901 4.094-1.512 0-2.646-.434-3.4-1.3-.758-.867-1.136-2.016-1.136-3.46 0-.6.043-1.13.13-1.598l1.816-11.546h5.02L78.51 22.186c-.065.33-.099.686-.099 1.063 0 1.31.453 1.961 1.363 1.961.71 0 1.512-.409 2.397-1.228.885-.82 1.717-1.853 2.493-3.096l1.394-8.95h5.055zm12.607 0c1.716 0 3.041.654 3.975 1.96.933 1.306 1.4 3.009 1.4 5.1 0 1.376-.179 2.698-.537 3.97a13.312 13.312 0 0 1-1.678 3.664c-.758 1.174-1.844 2.112-3.257 2.82-1.411.71-3.06 1.067-4.95 1.067-.737 0-1.66-.08-2.768-.237l-.194 1.992-.75 4.729h-5.047l3.778-24.692h3.973l-.13 3.784c1.606-2.771 3.666-4.157 6.185-4.157zm22.16 5.47c-.164 4.275-2.964 6.412-8.405 6.412a23.8 23.8 0 0 1-2.26-.104c.102 1.069.434 1.834.996 2.298.557.467 1.519.7 2.886.7 1.608 0 3.268-.337 4.981-1.011l-.734 4.424c-1.71.605-3.544.908-5.5.908-2.732 0-4.67-.664-5.823-1.986-1.151-1.328-1.727-3.242-1.727-5.753 0-3.206.842-5.898 2.523-8.082 1.68-2.184 3.946-3.276 6.799-3.276 2.14 0 3.716.496 4.737 1.481 1.017.989 1.527 2.317 1.527 3.99zm1.199 12.434l2.663-17.537h3.946l-.191 4.225c1.731-3.059 3.89-4.592 6.482-4.592h.287l-.96 5.29c-1.092 0-2.174.352-3.242 1.05a9.278 9.278 0 0 0-2.632 2.544l-1.347 9.02h-5.006zm35.454-17.904c1.338 0 2.356.439 3.058 1.316.698.876 1.05 2.045 1.05 3.509 0 .577-.041 1.1-.124 1.563l-1.699 11.516h-3.705l1.544-10.716c.08-.553.122-.966.122-1.231 0-1.553-.526-2.33-1.574-2.33-.761 0-1.678.554-2.75 1.663-1.068 1.11-2.004 2.452-2.809 4.027l-1.266 8.587h-3.706l1.543-10.716c.083-.553.124-.966.124-1.231 0-1.553-.524-2.33-1.575-2.33-.781 0-1.703.581-2.763 1.748-1.062 1.164-1.993 2.578-2.795 4.242l-1.204 8.287h-3.738l2.593-17.54h2.965l-.37 4.659c1.998-3.346 4.209-5.023 6.641-5.023 1.296 0 2.296.412 2.995 1.231.699.82 1.071 1.917 1.113 3.294 1.892-3.016 4.002-4.525 6.33-4.525zm11.45 19.097c-1.532 0-2.739-.678-3.62-2.035-.884-1.356-1.324-3.101-1.324-5.235 0-1.393.176-2.742.52-4.054a14.226 14.226 0 0 1 1.624-3.772c.734-1.207 1.772-2.175 3.117-2.905 1.34-.73 2.903-1.096 4.692-1.096 2.14 0 4.417.347 6.83 1.044l-2.551 17.67h-3.054l.41-4.453c-2.078 3.223-4.293 4.836-6.643 4.836zm13.039-1.193l2.597-17.571h3.036l-.343 4.501c1.857-3.22 3.994-4.834 6.416-4.834h.282l-.752 4.067c-2.085 0-4.13 1.601-6.134 4.8l-1.314 9.037h-3.788zm21.957-4.136l-.406 3.36c-1.547.516-2.986.776-4.309.776-3.03 0-4.547-1.294-4.547-3.879l.133-1.322 1.484-9.046h-2.324l.54-3.135h2.39l1.143-4.102h3.505l-.675 4.102H211l-.64 3.135h-4.952l-1.414 8.659a1.838 1.838 0 0 0-.032.418c0 .645.145 1.087.436 1.325.293.236.887.356 1.787.356 1.01 0 1.94-.217 2.795-.647zM102.462 16.71c-.667 0-1.436.447-2.307 1.336-.87.89-1.65 1.936-2.339 3.138l-.708 4.704c.751.248 1.611.37 2.581.37 1.546 0 2.703-.641 3.467-1.92.761-1.28 1.145-2.699 1.145-4.257 0-.979-.16-1.784-.485-2.417-.322-.636-.773-.954-1.354-.954zm12.629 4.696c.215.055.562.078 1.037.078 3.303 0 4.957-.92 4.957-2.757 0-.595-.164-1.081-.487-1.457-.323-.375-.81-.56-1.456-.56-1.037 0-1.895.413-2.578 1.242-.677.83-1.172 1.977-1.473 3.454zm59.553 6.046c.81 0 1.763-.638 2.858-1.91 1.096-1.281 2.046-2.734 2.856-4.376l.67-5.125c-.771-.35-1.733-.525-2.887-.525-1.014 0-1.895.248-2.646.753a4.94 4.94 0 0 0-1.718 1.968 10.649 10.649 0 0 0-.867 2.49 12.288 12.288 0 0 0-.274 2.582c0 1.242.177 2.24.532 3 .356.761.847 1.143 1.476 1.143zM23.118 0c2.462 0 4.457 1.872 4.456 4.179-.001 2.306-1.998 4.177-4.46 4.176-1.976-.001-3.632-1.215-4.216-2.884L1.43 5.464c-.79 0-1.43-.6-1.43-1.34 0-.741.641-1.342 1.431-1.342l17.498.008C19.542 1.167 21.177 0 23.118 0z"/></svg>